<?xml version="1.0" encoding="UTF-8"?>
<!DOCTYPE svg PUBLIC "-//W3C//DTD SVG 1.1//EN" "http://www.w3.org/Graphics/SVG/1.1/DTD/svg11.dtd">
<!-- Creator: CorelDRAW 2020 (64-Bit) -->
<svg xmlns="http://www.w3.org/2000/svg" xml:space="preserve" width="3.5in" height="5in" version="1.1" style="shape-rendering:geometricPrecision; text-rendering:geometricPrecision; image-rendering:optimizeQuality; fill-rule:evenodd; clip-rule:evenodd"
viewBox="0 0 3500 5000"
 xmlns:xlink="http://www.w3.org/1999/xlink"
 xmlns:xodm="http://www.corel.com/coreldraw/odm/2003"
 data-name="Layer 1">
 <defs>
  <style type="text/css">
   <![CDATA[
    .str0 {stroke:black;stroke-width:111.11;stroke-miterlimit:2.61313}
    .fil0 {fill:#FEFEFE}
    .fil1 {fill:#2B2A29}
   ]]>
  </style>
 </defs>
 <g id="Layer_x0020_1">
  <metadata id="CorelCorpID_0Corel-Layer"/>
  <path class="fil0 str0" d="M619 1829.61l2335.24 0c3.06,-0.1 6.27,-0.19 9.37,-0.19 15.63,0 31.27,1.58 46.59,4.68 30.38,6.66 58.37,21.83 80.56,43.62 25.81,24.76 42.06,57.88 45.86,93.43 0.2,3.73 0.31,7.54 0.31,11.28 0,9.69 -0.68,19.41 -1.98,29l-198.89 2060.27 0 0 0 3.63 0 7.83 0 0c-1.3,8.46 -3.2,16.95 -5.59,25.17l0 0 0 1.68 0 0c-21.6,66.61 -83.02,112.29 -153.02,113.85l-1986.41 0c-11.78,-0.58 -23.54,-2.37 -34.96,-5.32 -11.22,-3.34 -22.16,-7.87 -32.46,-13.42l0.01 -0c-49.48,-28.48 -81.78,-79.57 -86.17,-136.52l-195.81 -2055.78c-1.46,-10.22 -2.23,-20.59 -2.23,-30.94 0,-5.15 0.19,-10.37 0.55,-15.49 3.91,-35.06 20.1,-67.67 45.61,-92.03 23.13,-22.5 52.27,-37.84 83.91,-44.19 14.19,-2.49 28.66,-3.74 43.07,-3.74 2.32,0 4.73,0.03 7.02,0.09l-0.57 3.08zm-154.41 -793.33l880.33 0 0 -78.32 0 0c-0.06,-1.25 -0.1,-2.52 -0.1,-3.78 0,-1.26 0.04,-2.53 0.11,-3.78 1.74,-42.15 19.36,-82.13 49.24,-111.91l-0.01 0.01c31.36,-30.96 73.7,-48.37 117.77,-48.39l541.85 0 8.39 0c89.31,4.46 159.45,78.21 159.45,167.63 0,0.06 0,0.15 0,0.2l0 0.01 0 0 0 78.32 895.16 0 10.91 0c65.51,5.34 117.02,58.3 120.57,123.93 0,5.04 0,8.95 0,13.99l0 275.82c0,40 -32.44,72.45 -72.45,72.45l-2796.81 0c0,0 -0,0 -0,0 -39.68,0 -71.98,-31.94 -72.44,-71.61l-0.01 -282.26 0 0c-0.13,-1.43 -0.22,-2.89 -0.22,-4.34 0,-1.44 0.08,-2.9 0.22,-4.33l0 0c3.93,-60.61 48.76,-110.73 108.54,-121.4 12.48,-1.62 25.19,-2.48 37.84,-2.48 3.87,0 7.85,0.11 11.69,0.25l-0.02 -0.02z"/>
  <g id="_2379705342000">
   <rect class="fil1" x="1126.5" y="2199.85" width="274.39" height="1638.13" rx="100.88" ry="199.77"/>
   <rect class="fil1" x="1642.58" y="2199.85" width="274.39" height="1638.13" rx="100.88" ry="199.77"/>
   <rect class="fil1" x="2191.36" y="2199.85" width="274.39" height="1638.13" rx="100.88" ry="199.77"/>
  </g>
 </g>
</svg>
